<?xml version="1.0" standalone="no"?>
<!DOCTYPE svg PUBLIC "-//W3C//DTD SVG 20010904//EN"
 "http://www.w3.org/TR/2001/REC-SVG-20010904/DTD/svg10.dtd">
<svg version="1.0" xmlns="http://www.w3.org/2000/svg"
 width="512.000000pt" height="512.000000pt" viewBox="0 0 512.000000 512.000000"
 preserveAspectRatio="xMidYMid meet">

<g transform="translate(0.000000,512.000000) scale(0.100000,-0.100000)"
fill="#ffffff" stroke="none">
<path d="M1735 3791 c-68 -17 -127 -75 -145 -142 -20 -73 15 -162 81 -206 36
-24 54 -28 135 -31 l93 -4 11 -33 c11 -32 7 -40 -129 -258 l-141 -224 -85 34
c-125 50 -226 66 -370 60 -145 -7 -209 -23 -340 -87 -172 -83 -305 -214 -390
-385 -58 -117 -84 -216 -92 -340 -24 -429 269 -809 692 -896 327 -68 680 69
870 336 54 76 120 213 137 283 l11 51 54 -56 54 -56 -33 -83 -33 -84 -66 0
c-74 0 -99 -16 -99 -63 0 -53 16 -57 203 -57 95 0 177 4 183 8 6 4 17 18 24
31 19 37 -14 75 -68 79 -23 2 -42 6 -42 10 0 4 9 30 19 57 l19 50 89 6 c145 9
236 67 295 187 29 58 33 76 33 147 0 66 -5 90 -28 139 l-27 59 214 221 c118
121 313 322 434 446 l219 225 43 -130 c24 -72 45 -135 47 -142 3 -6 -31 -30
-76 -53 -367 -191 -549 -640 -416 -1029 95 -281 302 -479 591 -567 79 -24 105
-27 229 -27 167 0 251 19 390 88 171 86 302 218 385 390 64 130 80 195 87 339
12 251 -64 459 -235 638 -181 189 -405 278 -667 265 -66 -4 -131 -9 -145 -13
-26 -6 -26 -4 -138 338 -62 189 -112 349 -112 356 0 17 401 16 450 -1 64 -22
98 -106 67 -167 -24 -48 -72 -70 -153 -70 l-74 0 0 -61 0 -61 93 4 c133 6 200
46 246 148 61 133 -24 298 -169 329 -71 15 -541 15 -575 -1 -14 -6 -28 -22
-31 -34 -5 -18 53 -215 104 -351 3 -10 -143 -13 -711 -13 l-715 0 -11 31 c-16
45 -16 45 32 68 30 15 63 21 106 21 77 0 123 20 153 67 42 69 25 145 -46 197
-26 20 -42 21 -264 23 -130 1 -250 -2 -267 -6z m473 -124 c20 -23 -2 -34 -78
-39 -74 -5 -84 -8 -204 -72 -58 -30 -157 -36 -193 -11 -45 32 -34 103 20 125
37 15 443 12 455 -3z m1180 -406 c-7 -19 -822 -851 -831 -848 -13 4 -12 11 29
117 l37 100 63 0 c72 0 107 20 107 63 0 55 -9 57 -207 57 -199 0 -206 -2 -206
-56 0 -40 30 -64 77 -64 18 0 33 -3 33 -7 0 -5 -13 -42 -29 -83 l-30 -75 -51
0 c-29 0 -54 3 -56 6 -3 5 -194 604 -248 777 l-7 22 661 0 c384 0 660 -4 658
-9z m-1294 -465 c108 -341 115 -370 99 -379 -10 -5 -42 -34 -70 -64 -43 -44
-53 -51 -53 -34 0 35 -56 175 -101 252 -26 46 -77 109 -135 166 l-92 93 110
176 c61 96 114 172 118 167 4 -4 59 -174 124 -377z m-637 39 c133 -44 134 -21
-15 -261 l-131 -209 -78 0 c-67 0 -85 -4 -126 -28 -142 -84 -164 -271 -45
-383 81 -77 182 -90 277 -38 52 27 103 83 116 125 6 18 20 19 262 19 l255 0
-7 -42 c-28 -182 -132 -362 -273 -473 -70 -56 -195 -119 -282 -142 -101 -27
-293 -24 -390 6 -100 31 -161 62 -248 129 -125 94 -225 245 -268 402 -28 101
-26 293 4 390 85 270 291 465 557 526 39 9 103 12 185 10 104 -3 139 -8 207
-31z m2708 2 c118 -39 199 -90 300 -192 72 -72 99 -107 133 -175 152 -305 90
-666 -152 -887 -324 -296 -813 -262 -1084 74 -202 251 -226 580 -61 861 46 76
170 200 248 245 106 63 93 78 188 -213 61 -187 81 -259 73 -270 -53 -80 -63
-103 -62 -155 0 -58 11 -86 51 -128 39 -42 79 -60 137 -60 134 0 227 133 180
256 -22 58 -63 96 -128 118 l-53 17 -82 254 c-46 139 -83 258 -83 265 0 17 47
21 190 18 103 -2 139 -7 205 -28z m-2404 -195 c41 -43 89 -104 108 -135 40
-68 87 -201 96 -274 l7 -53 -254 1 -253 0 -28 58 -27 59 132 211 c72 116 135
211 138 211 4 0 41 -35 81 -78z m619 -300 c0 -4 -16 -47 -35 -96 -19 -49 -35
-96 -35 -104 0 -45 72 -69 102 -34 8 9 30 55 48 102 18 47 35 87 38 90 2 3 19
-13 38 -34 60 -70 70 -152 27 -237 -19 -35 -43 -64 -71 -84 -40 -27 -51 -30
-122 -30 -71 0 -82 3 -122 30 -50 35 -98 120 -98 173 0 109 75 201 180 223 50
10 50 10 50 1z m-1092 -112 c91 -56 74 -193 -29 -220 -74 -20 -152 40 -152
117 0 96 100 152 181 103z m2697 -55 c39 -38 32 -86 -17 -111 -75 -39 -139 71
-71 124 26 19 62 14 88 -13z"/>
</g>
</svg>
